<!DOCTYPE svg PUBLIC "-//W3C//DTD SVG 20010904//EN" "http://www.w3.org/TR/2001/REC-SVG-20010904/DTD/svg10.dtd">
<svg version="1.0" xmlns="http://www.w3.org/2000/svg" width="1600px" height="900px" viewBox="0 0 16000 9000" preserveAspectRatio="xMidYMid meet">
<g id="layer101" fill="#040404" stroke="none">
 <path d="M0 4500 l0 -4500 8000 0 8000 0 0 4500 0 4500 -8000 0 -8000 0 0 -4500z"/>
 </g>
<g id="layer102" fill="#303030" stroke="none">
 <path d="M0 4500 l0 -4500 8000 0 8000 0 0 4500 0 4500 -8000 0 -8000 0 0 -4500z m2928 2575 c70 -71 208 -213 307 -315 99 -102 245 -253 325 -336 80 -83 151 -153 157 -157 6 -4 53 3 104 15 190 42 421 20 609 -59 162 -68 274 -147 402 -282 99 -103 168 -203 234 -336 46 -93 51 -98 104 -125 292 -148 507 -490 542 -864 32 -346 -69 -668 -291 -920 -35 -39 -50 -64 -46 -75 16 -41 35 -146 45 -246 47 -490 -185 -953 -575 -1152 -126 -64 -215 -85 -382 -91 l-152 -4 -55 -73 c-170 -226 -395 -373 -655 -429 -163 -35 -259 -34 -421 3 -113 26 -205 62 -322 127 -25 13 -36 13 -120 -8 -79 -20 -119 -23 -268 -23 -158 0 -185 3 -282 27 -59 16 -140 41 -180 57 -302 120 -582 372 -743 668 -19 36 -38 57 -59 65 -295 121 -571 378 -733 683 -88 167 -148 341 -184 540 -31 171 -32 449 0 625 78 443 292 807 616 1050 50 37 107 84 128 104 22 20 55 49 75 64 21 15 39 30 42 33 3 4 37 22 75 41 94 47 219 78 318 78 141 0 320 -56 414 -130 13 -10 30 -16 38 -14 8 3 41 42 73 87 110 152 283 296 445 373 77 36 234 84 273 84 34 0 39 21 25 99 -7 36 -17 91 -21 121 -5 30 -25 147 -45 260 -75 421 -125 718 -125 740 0 8 41 -28 91 -80 50 -52 148 -153 217 -225z m3648 -1985 c27 -19 59 -46 72 -60 35 -37 71 -121 83 -189 22 -124 -29 -272 -120 -346 -63 -51 -100 -63 -188 -64 -77 -1 -98 -12 -109 -56 -8 -30 11 -64 42 -75 14 -6 99 -10 190 -10 l164 0 0 -140 0 -140 -199 0 c-194 0 -199 1 -247 26 -133 70 -195 197 -181 370 10 110 54 196 132 252 55 39 97 52 170 52 75 0 115 24 115 70 0 19 -9 36 -26 49 -25 20 -40 21 -220 21 l-194 0 0 133 c0 74 3 137 8 141 4 4 109 6 233 4 l227 -3 48 -35z m961 -1 c81 -46 125 -83 164 -136 l33 -46 -40 -35 c-21 -19 -63 -53 -92 -75 l-53 -40 -42 40 c-48 46 -90 63 -156 63 -89 -1 -162 -54 -210 -153 -34 -71 -33 -188 3 -261 76 -154 249 -194 363 -84 l42 41 58 -49 c116 -96 122 -103 109 -128 -16 -32 -104 -114 -152 -142 -123 -72 -296 -72 -418 0 -89 53 -173 158 -219 275 -29 72 -30 84 -30 221 -1 138 1 149 29 220 50 126 131 223 239 285 63 37 107 45 222 40 83 -3 99 -7 150 -36z m2051 3 c85 -42 182 -143 225 -232 53 -114 61 -152 61 -290 -1 -111 -4 -133 -28 -194 -88 -229 -238 -348 -436 -349 -197 0 -346 119 -431 343 -29 78 -32 95 -32 205 0 110 2 128 31 208 52 145 136 248 252 308 93 48 264 48 358 1z m1114 -8 c74 -42 106 -70 159 -142 160 -213 156 -536 -9 -741 -80 -100 -165 -152 -280 -170 -220 -35 -421 109 -499 358 -38 119 -37 270 0 381 50 147 124 242 243 310 71 41 121 50 236 44 77 -4 95 -9 150 -40z m-2562 -275 c0 -212 4 -324 12 -351 6 -22 31 -60 54 -83 79 -81 172 -82 248 -2 66 69 66 71 66 427 l0 321 113 -3 112 -3 0 -325 c0 -233 -4 -342 -14 -385 -28 -130 -124 -261 -233 -320 -69 -38 -206 -47 -288 -20 -44 15 -54 15 -61 4 -5 -8 -9 -128 -9 -266 0 -201 -3 -253 -13 -253 -7 0 -17 4 -23 9 -5 5 -27 14 -49 21 -22 7 -61 21 -87 32 l-48 20 0 744 0 744 110 0 110 0 0 -311z m3290 -474 c0 -432 -2 -785 -5 -785 -13 0 -201 73 -212 82 -10 8 -13 169 -13 743 0 402 3 735 7 738 3 4 55 7 115 7 l108 0 0 -785z m3370 771 c0 -9 17 -16 50 -20 27 -4 52 -11 55 -16 8 -13 145 -13 145 0 0 6 32 10 75 10 l75 0 0 -505 0 -505 -74 0 c-67 0 -74 2 -79 21 -5 20 -11 21 -67 17 -37 -3 -65 -10 -70 -18 -12 -19 -221 -21 -227 -2 -3 6 -15 12 -28 12 -12 0 -28 7 -35 15 -7 8 -21 15 -31 15 -11 0 -19 6 -19 14 0 8 -13 19 -30 25 -20 7 -30 17 -30 30 0 12 -5 21 -11 21 -6 0 -24 13 -40 29 -21 22 -29 39 -29 65 0 24 -5 36 -14 36 -16 0 -26 21 -26 55 0 13 -4 27 -10 30 -12 8 -14 295 -1 295 5 0 12 20 15 45 5 29 12 45 22 45 8 0 14 10 14 25 0 14 5 25 10 25 6 0 10 7 10 15 0 8 7 15 15 15 9 0 15 9 15 24 0 15 7 26 20 29 12 3 20 14 20 25 0 15 9 22 30 27 17 4 30 11 30 16 0 5 6 9 13 9 7 0 20 9 30 20 9 11 26 20 36 20 11 0 23 5 26 10 3 6 20 10 36 10 17 0 37 7 45 15 19 19 34 19 34 1z m37 -3 c-4 -3 -10 -3 -14 0 -3 4 0 7 7 7 7 0 10 -3 7 -7z m853 -528 l0 -506 -37 7 c-21 4 -39 11 -41 15 -2 5 -19 11 -38 15 l-34 6 0 484 0 484 75 0 75 0 0 -505z"/>
 <path d="M2960 6658 c0 -13 7 -59 14 -103 8 -44 28 -161 45 -260 17 -99 35 -200 40 -225 6 -25 13 -66 16 -91 l6 -46 -138 -6 c-117 -5 -153 -10 -236 -37 -205 -66 -391 -207 -509 -386 -135 -205 -198 -419 -198 -677 0 -141 35 -366 58 -368 4 0 43 -1 87 -2 62 -2 93 -8 135 -28 242 -113 318 -443 158 -684 -33 -49 -57 -71 -128 -115 -53 -34 -58 -35 -160 -35 -101 0 -107 1 -162 33 -212 124 -277 420 -142 650 l27 45 -22 68 c-80 247 -80 625 0 875 16 50 29 100 29 111 0 42 -140 112 -267 133 -59 9 -85 9 -151 -3 -312 -59 -535 -390 -498 -740 10 -91 19 -101 80 -87 93 21 216 -27 303 -117 59 -62 106 -167 117 -264 14 -110 -27 -254 -97 -344 -44 -56 -63 -70 -135 -107 -55 -27 -74 -32 -141 -32 -128 0 -232 63 -306 183 -81 134 -88 329 -17 468 26 51 27 76 6 157 -9 33 -19 113 -23 176 -8 146 -18 148 -87 22 -122 -220 -194 -498 -194 -745 0 -250 76 -537 198 -752 246 -431 685 -671 1130 -616 98 12 276 63 288 83 4 6 6 36 5 67 -6 171 84 341 221 417 49 27 61 29 158 29 101 0 107 -1 159 -33 99 -61 160 -141 191 -255 38 -136 17 -290 -53 -397 -59 -90 -123 -137 -227 -166 -55 -15 -71 -16 -123 -5 -73 15 -119 37 -176 85 l-42 35 -52 -20 c-29 -12 -109 -37 -180 -55 -105 -28 -151 -35 -258 -38 -72 -3 -133 -7 -136 -9 -13 -14 16 -53 105 -138 186 -180 409 -298 618 -329 88 -12 269 -12 356 0 76 11 237 64 317 105 183 93 375 270 499 460 92 141 185 385 217 569 19 109 20 230 3 243 -7 5 -38 17 -68 26 -108 33 -212 158 -241 288 -45 211 28 406 191 509 54 34 57 35 165 35 106 0 112 -1 167 -33 132 -76 208 -219 208 -392 0 -136 -41 -239 -131 -328 l-59 -58 -10 -139 c-6 -77 -16 -178 -24 -225 -33 -205 -134 -463 -253 -646 -36 -55 -91 -133 -103 -144 -3 -3 -30 -33 -60 -68 -57 -67 -182 -176 -262 -231 -65 -43 -64 -65 5 -82 69 -18 295 -18 367 0 64 16 194 67 230 91 14 9 45 30 70 46 152 99 295 290 369 492 32 85 38 122 22 122 -16 0 -111 91 -141 135 -35 51 -80 199 -80 262 0 159 99 330 231 399 48 26 64 29 149 29 86 0 100 -3 148 -29 77 -43 139 -110 181 -196 36 -75 36 -76 36 -205 -1 -124 -2 -133 -32 -195 -40 -87 -112 -163 -192 -203 -72 -37 -71 -36 -101 -133 -30 -97 -26 -109 31 -108 114 4 278 70 384 154 79 63 125 114 181 201 155 239 194 551 103 829 -35 111 -144 300 -171 300 -6 0 -24 -11 -40 -25 -67 -57 -106 -69 -213 -70 -92 0 -104 2 -154 30 -77 42 -155 133 -185 214 -41 111 -51 173 -37 239 18 86 51 172 82 216 75 104 206 173 313 164 61 -5 150 -44 206 -90 96 -78 158 -240 146 -384 -4 -58 -3 -74 10 -85 9 -7 43 -50 76 -96 33 -46 66 -83 74 -83 16 0 80 83 122 160 127 228 145 529 48 784 -83 216 -236 376 -442 458 -75 31 -85 32 -219 33 -111 0 -151 -4 -192 -18 -29 -10 -53 -24 -54 -30 0 -7 0 -57 1 -112 1 -102 -12 -162 -55 -246 -49 -94 -142 -170 -235 -190 -216 -46 -398 90 -446 334 -16 82 -16 92 0 175 59 298 335 440 559 285 l38 -26 97 32 c60 21 136 38 201 45 66 7 106 16 109 24 4 14 -58 100 -122 170 -88 96 -260 203 -401 250 -261 88 -581 25 -809 -157 -65 -52 -161 -149 -189 -191 -122 -179 -164 -267 -207 -434 -31 -121 -29 -128 31 -156 55 -26 138 -109 168 -169 39 -76 64 -182 58 -251 -11 -152 -91 -293 -208 -365 l-64 -40 -105 0 c-104 0 -106 1 -167 38 -71 43 -117 95 -164 187 -34 64 -34 66 -34 200 0 130 1 137 31 200 37 77 111 163 165 190 47 25 48 26 58 102 25 194 127 447 246 613 96 134 222 258 343 339 23 16 42 34 42 41 0 12 -51 66 -322 344 -92 94 -174 171 -183 171 -9 0 -15 -9 -15 -22z"/>
 <path d="M4127 5332 c-33 -8 -82 -53 -104 -96 -20 -37 -21 -131 -3 -166 37 -72 116 -119 177 -104 44 10 90 50 114 98 42 85 13 201 -64 250 -28 18 -84 26 -120 18z"/>
 <path d="M2905 4855 c-74 -27 -112 -103 -102 -204 10 -90 73 -151 156 -151 134 0 211 158 138 283 -42 72 -116 100 -192 72z"/>
 <path d="M1034 4421 c-23 -10 -54 -36 -70 -56 -24 -32 -29 -49 -32 -109 -3 -64 -1 -75 24 -113 74 -112 215 -107 276 10 77 149 -59 333 -198 268z"/>
 <path d="M4685 4366 c-143 -66 -136 -296 10 -351 51 -20 84 -15 137 21 50 35 68 77 68 162 0 75 -19 116 -71 155 -34 25 -105 31 -144 13z"/>
 <path d="M2068 4184 c-45 -24 -78 -91 -78 -158 0 -68 17 -111 59 -150 25 -24 42 -30 88 -34 72 -5 117 21 151 88 45 88 12 224 -64 259 -35 15 -124 13 -156 -5z"/>
 <path d="M3662 3954 c-105 -63 -119 -210 -27 -301 41 -41 45 -43 103 -43 51 0 66 4 92 26 110 93 85 285 -43 333 -44 17 -79 13 -125 -15z"/>
 <path d="M4385 3195 c-49 -17 -102 -75 -116 -129 -25 -94 40 -216 125 -231 63 -12 125 13 161 64 27 39 30 50 30 120 0 70 -4 82 -28 115 -47 61 -109 83 -172 61z"/>
 <path d="M2394 3048 c-98 -59 -119 -215 -40 -301 104 -113 276 -30 276 134 0 59 -19 105 -61 145 -25 24 -39 29 -92 31 -38 2 -70 -2 -83 -9z"/>
 <path d="M9325 4841 c-93 -44 -146 -125 -153 -236 -5 -83 7 -134 47 -197 82 -129 257 -146 356 -36 57 62 75 110 75 203 0 64 -5 90 -25 133 -27 58 -89 120 -138 139 -48 17 -117 15 -162 -6z"/>
 <path d="M10425 4841 c-49 -23 -95 -71 -127 -131 -33 -63 -33 -205 -1 -266 53 -101 117 -144 213 -144 75 0 129 27 177 88 49 62 66 121 61 209 -10 191 -173 313 -323 244z"/>
 <path d="M15142 5045 c-1 -14 3 -25 8 -25 6 0 10 11 10 25 0 14 -4 25 -8 25 -4 0 -9 -11 -10 -25z"/>
 <path d="M14670 5020 c0 -7 3 -10 7 -7 3 4 3 10 0 14 -4 3 -7 0 -7 -7z"/>
 <path d="M14861 5014 c0 -11 3 -14 6 -6 3 7 2 16 -1 19 -3 4 -6 -2 -5 -13z"/>
 <path d="M15045 5020 c-3 -5 -1 -10 4 -10 6 0 11 5 11 10 0 6 -2 10 -4 10 -3 0 -8 -4 -11 -10z"/>
 <path d="M14885 5010 c-3 -5 -1 -10 4 -10 6 0 11 5 11 10 0 6 -2 10 -4 10 -3 0 -8 -4 -11 -10z"/>
 <path d="M14680 4990 c0 -7 3 -10 7 -7 3 4 3 10 0 14 -4 3 -7 0 -7 -7z"/>
 <path d="M14530 4935 c0 -8 5 -15 11 -15 5 0 7 5 4 10 -3 6 -2 10 4 10 5 0 12 -6 14 -12 3 -8 6 -6 6 5 1 11 -6 17 -19 17 -11 0 -20 -7 -20 -15z"/>
 <path d="M14584 4905 c1 -33 16 -33 16 0 0 14 -4 25 -9 25 -5 0 -8 -11 -7 -25z"/>
 <path d="M14703 4923 c4 -3 10 -3 14 0 3 4 0 7 -7 7 -7 0 -10 -3 -7 -7z"/>
 <path d="M15030 4920 c0 -7 3 -10 7 -7 3 4 3 10 0 14 -4 3 -7 0 -7 -7z"/>
 <path d="M15050 4916 c0 -8 -6 -17 -12 -19 -8 -3 -6 -6 5 -6 11 -1 17 6 17 19 0 11 -2 20 -5 20 -3 0 -5 -6 -5 -14z"/>
 <path d="M14698 4894 c-10 -3 -18 -10 -18 -15 0 -5 -18 -12 -40 -15 -29 -5 -40 -11 -40 -24 0 -29 -11 -50 -26 -50 -8 0 -14 -9 -14 -20 0 -11 -6 -20 -14 -20 -21 0 -26 -33 -26 -164 0 -113 13 -196 32 -196 4 0 8 -5 8 -11 0 -6 18 -29 40 -51 36 -35 49 -41 108 -49 102 -15 262 8 262 37 0 8 4 14 10 14 5 0 12 11 16 25 3 14 12 25 19 25 16 0 36 86 42 182 6 99 -11 184 -43 213 -13 12 -29 37 -35 54 -7 19 -18 31 -29 31 -10 0 -26 7 -35 16 -12 13 -39 18 -108 20 -51 2 -100 1 -109 -2z m99 -20 c-3 -3 -12 -4 -19 -1 -8 3 -5 6 6 6 11 1 17 -2 13 -5z"/>
 <path d="M14480 4870 c0 -7 3 -10 7 -7 3 4 3 10 0 14 -4 3 -7 0 -7 -7z"/>
 <path d="M15060 4855 c0 -8 5 -15 10 -15 6 0 10 7 10 15 0 8 -4 15 -10 15 -5 0 -10 -7 -10 -15z"/>
 <path d="M14480 4820 c0 -11 5 -20 10 -20 6 0 10 9 10 20 0 11 -4 20 -10 20 -5 0 -10 -9 -10 -20z"/>
 <path d="M15030 4810 c0 -5 5 -10 10 -10 6 0 10 5 10 10 0 6 -4 10 -10 10 -5 0 -10 -4 -10 -10z"/>
 <path d="M15160 4810 c0 -5 5 -10 10 -10 6 0 10 5 10 10 0 6 -4 10 -10 10 -5 0 -10 -4 -10 -10z"/>
 <path d="M14460 4605 c0 -8 5 -15 10 -15 6 0 10 7 10 15 0 8 -4 15 -10 15 -5 0 -10 -7 -10 -15z"/>
 <path d="M14390 4594 c0 -8 5 -12 10 -9 6 3 10 10 10 16 0 5 -4 9 -10 9 -5 0 -10 -7 -10 -16z"/>
 <path d="M15132 4568 c6 -18 28 -21 28 -4 0 9 -7 16 -16 16 -9 0 -14 -5 -12 -12z"/>
 <path d="M14390 4560 c0 -5 5 -10 10 -10 6 0 10 5 10 10 0 6 -4 10 -10 10 -5 0 -10 -4 -10 -10z"/>
 <path d="M14472 4510 c0 -14 2 -19 5 -12 2 6 2 18 0 25 -3 6 -5 1 -5 -13z"/>
 <path d="M14380 4505 c0 -8 7 -15 15 -15 8 0 15 7 15 15 0 8 -7 15 -15 15 -8 0 -15 -7 -15 -15z"/>
 <path d="M15160 4505 c0 -8 5 -15 10 -15 6 0 10 7 10 15 0 8 -4 15 -10 15 -5 0 -10 -7 -10 -15z"/>
 <path d="M15073 4483 c-21 -8 -15 -33 7 -33 13 0 20 7 20 20 0 20 -5 23 -27 13z m14 -20 c-4 -3 -7 0 -7 7 0 7 3 10 7 7 3 -4 3 -10 0 -14z"/>
 <path d="M14610 4240 c0 -5 5 -10 11 -10 5 0 7 5 4 10 -3 6 -8 10 -11 10 -2 0 -4 -4 -4 -10z"/>
 <path d="M14985 4240 c3 -5 10 -10 16 -10 5 0 9 5 9 10 0 6 -7 10 -16 10 -8 0 -12 -4 -9 -10z"/>
 <path d="M15090 4240 c0 -5 7 -10 15 -10 8 0 15 5 15 10 0 6 -7 10 -15 10 -8 0 -15 -4 -15 -10z"/>
 <path d="M15167 4200 c-3 -11 -1 -20 4 -20 5 0 9 9 9 20 0 11 -2 20 -4 20 -2 0 -6 -9 -9 -20z"/>
 <path d="M14870 4180 c-13 -9 -13 -11 0 -20 19 -12 35 -8 35 10 0 18 -16 22 -35 10z m17 -17 c-4 -3 -7 0 -7 7 0 7 3 10 7 7 3 -4 3 -10 0 -14z"/>
 <path d="M15103 4133 c4 -3 10 -3 14 0 3 4 0 7 -7 7 -7 0 -10 -3 -7 -7z"/>
 <path d="M15585 4930 c-3 -5 1 -10 9 -10 8 0 18 5 21 10 3 6 -1 10 -9 10 -8 0 -18 -4 -21 -10z"/>
 <path d="M15600 4870 c0 -5 7 -10 16 -10 8 0 12 5 9 10 -3 6 -10 10 -16 10 -5 0 -9 -4 -9 -10z"/>
 <path d="M15640 4810 c0 -5 7 -10 16 -10 8 0 12 5 9 10 -3 6 -10 10 -16 10 -5 0 -9 -4 -9 -10z"/>
 <path d="M15610 4545 c0 -8 7 -15 15 -15 8 0 15 4 15 9 0 5 -7 11 -15 15 -9 3 -15 0 -15 -9z"/>
 <path d="M15553 4375 c0 -8 4 -15 9 -15 4 0 8 7 8 15 0 8 -4 15 -8 15 -5 0 -9 -7 -9 -15z"/>
 <path d="M15582 4198 c6 -18 28 -21 28 -4 0 9 -7 16 -16 16 -9 0 -14 -5 -12 -12z"/>
 </g>
<g id="layer103" fill="#505050" stroke="none">
 <path d="M0 4500 l0 -4500 8000 0 8000 0 0 4500 0 4500 -8000 0 -8000 0 0 -4500z m2688 2842 c39 -37 72 -72 72 -78 0 -6 65 -74 145 -152 80 -77 145 -145 145 -150 0 -5 70 -76 155 -158 85 -82 155 -153 155 -159 0 -5 63 -73 140 -149 77 -77 140 -142 140 -146 0 -4 9 -10 20 -13 11 -3 24 -16 29 -30 14 -37 36 -39 141 -16 280 61 598 -14 848 -201 160 -120 291 -278 391 -475 50 -97 51 -97 127 -141 43 -24 85 -51 94 -59 9 -8 19 -15 23 -15 13 0 164 -164 205 -223 53 -75 111 -190 142 -277 30 -87 62 -236 60 -283 0 -21 3 -43 7 -50 10 -16 10 -137 0 -144 -4 -2 -7 -23 -6 -46 1 -23 -9 -87 -21 -142 -34 -156 -91 -292 -172 -412 -15 -23 -28 -45 -28 -50 0 -4 -9 -14 -20 -21 -11 -7 -20 -18 -20 -25 0 -6 -19 -28 -42 -48 l-41 -36 16 -59 c9 -32 19 -81 22 -109 4 -27 9 -57 12 -65 8 -24 9 -301 0 -307 -4 -2 -7 -19 -6 -36 1 -36 -21 -129 -53 -227 -43 -134 -153 -323 -233 -400 -19 -19 -35 -39 -35 -46 0 -6 -8 -14 -17 -18 -10 -3 -45 -28 -78 -56 -94 -79 -221 -143 -365 -181 -25 -7 -53 -11 -63 -10 -10 1 -24 -2 -30 -7 -15 -12 -175 -13 -183 -1 -15 24 -45 5 -92 -58 -28 -38 -62 -79 -76 -92 -14 -14 -26 -30 -26 -37 0 -7 -10 -19 -22 -25 -13 -7 -45 -32 -72 -56 -121 -108 -266 -182 -446 -228 -110 -29 -138 -32 -245 -30 -157 3 -288 35 -443 111 l-112 56 -89 -21 c-192 -45 -350 -44 -547 3 -250 61 -439 165 -654 361 -47 42 -89 85 -94 94 -5 9 -31 43 -56 76 -25 33 -67 94 -93 135 -69 112 -76 121 -116 137 -111 46 -221 113 -340 207 -104 83 -141 118 -141 131 0 7 -15 26 -33 42 -17 16 -36 37 -42 45 -5 9 -41 62 -79 118 -118 176 -214 407 -251 605 -9 50 -19 97 -22 105 -17 50 -26 326 -13 432 42 367 149 657 331 901 33 43 59 80 59 82 0 11 190 186 252 232 40 30 87 68 103 84 115 112 240 182 395 220 123 31 162 34 219 20 20 -5 68 -17 106 -27 71 -17 190 -71 234 -105 13 -11 27 -19 31 -19 8 0 109 135 111 148 2 13 203 193 256 227 77 51 199 111 278 135 39 12 77 24 85 27 8 3 30 6 48 8 19 1 37 7 41 14 7 10 -3 91 -16 131 -3 8 -7 33 -9 55 -2 22 -15 99 -29 170 -15 72 -26 142 -26 157 1 15 -3 30 -9 33 -6 4 -8 11 -5 16 4 5 -3 55 -14 112 -11 56 -22 116 -25 132 -3 17 -8 49 -11 72 -3 23 -12 73 -21 110 -8 37 -15 80 -15 95 1 15 -3 30 -9 33 -6 4 -8 10 -5 15 3 4 1 29 -4 54 -5 25 -6 46 -2 46 3 0 39 -30 79 -68z m4737 -2206 c53 -6 150 -50 191 -87 11 -11 24 -19 29 -19 12 0 55 -41 55 -53 0 -5 10 -22 21 -39 l22 -30 -59 -54 c-32 -30 -61 -54 -65 -54 -5 0 -14 -8 -21 -19 -26 -37 -50 -33 -101 14 -75 69 -139 80 -222 41 -93 -44 -147 -132 -148 -241 -1 -112 25 -180 94 -238 69 -60 222 -64 262 -7 7 11 25 29 40 40 l27 21 54 -45 c29 -25 57 -46 61 -46 4 0 16 -11 27 -25 11 -14 26 -25 34 -25 20 0 17 -17 -8 -53 -55 -79 -144 -148 -220 -172 -29 -9 -60 -19 -68 -22 -27 -10 -134 -2 -190 13 -103 30 -186 94 -258 202 -40 60 -82 153 -82 182 0 9 -3 20 -7 24 -10 9 -10 267 -1 273 5 2 8 13 8 23 0 44 102 235 132 248 5 2 8 10 8 18 0 8 8 17 18 21 9 3 26 14 37 23 42 36 148 85 177 81 10 -1 25 2 35 7 9 5 33 8 52 5 20 -2 50 -6 66 -7z m7379 5 c3 -4 32 -11 63 -15 32 -4 72 -15 88 -26 38 -25 55 -25 55 0 0 19 7 20 115 20 115 0 116 0 125 -26 16 -41 13 -1036 -3 -1057 -11 -15 -27 -17 -122 -15 -107 3 -109 3 -115 28 -4 14 -11 24 -16 23 -15 -4 -138 -46 -154 -52 -18 -7 -88 -6 -110 1 -8 3 -40 13 -71 22 -152 44 -282 196 -324 381 -14 60 -22 236 -12 265 3 8 10 37 16 63 32 136 141 280 253 335 82 41 97 45 134 43 18 -1 35 2 39 8 8 13 32 14 39 2z m-8317 -10 c101 -15 188 -93 229 -207 42 -114 28 -271 -32 -359 -13 -20 -24 -40 -24 -45 0 -6 -6 -10 -13 -10 -8 0 -22 -9 -33 -21 -35 -39 -92 -60 -179 -66 -95 -7 -119 -21 -113 -69 5 -47 34 -54 219 -54 115 0 169 -4 177 -12 8 -8 12 -53 12 -138 0 -85 -4 -130 -12 -138 -8 -8 -68 -12 -202 -12 -189 0 -192 0 -251 28 -94 45 -164 135 -186 240 -11 56 -15 140 -6 149 4 3 7 18 7 32 0 23 28 86 76 174 8 15 21 27 29 27 8 0 18 6 22 13 20 32 145 71 203 64 55 -7 70 4 76 52 6 51 -10 56 -230 61 l-201 5 -3 139 c-2 105 1 141 10 148 17 11 348 10 425 -1z m3002 -1 c86 -15 150 -49 224 -123 66 -65 133 -182 158 -277 20 -72 19 -253 -1 -313 -29 -87 -65 -160 -103 -210 -21 -26 -37 -51 -37 -57 0 -5 -11 -15 -24 -22 -13 -7 -42 -26 -66 -42 -130 -86 -333 -89 -449 -6 -16 11 -32 20 -35 20 -10 0 -86 82 -119 130 -18 25 -47 88 -65 140 -30 85 -34 106 -34 205 0 91 4 124 26 190 33 104 84 189 149 248 117 108 224 141 376 117z m1100 -1 c117 -19 216 -88 297 -208 39 -58 74 -130 74 -152 0 -10 4 -20 10 -24 5 -3 7 -12 3 -20 -3 -8 -2 -23 2 -32 9 -22 12 -223 4 -229 -4 -2 -10 -25 -14 -51 -8 -52 -53 -149 -95 -203 -15 -19 -30 -43 -33 -52 -4 -10 -13 -18 -20 -18 -8 0 -22 -9 -32 -20 -51 -56 -172 -100 -276 -100 -167 0 -328 106 -403 265 -47 99 -59 148 -64 265 -5 135 9 206 63 315 50 100 64 119 120 162 131 101 220 126 364 102z m-2448 -10 c20 -10 20 -20 18 -340 l-2 -330 29 -42 c33 -47 102 -87 149 -87 46 0 106 40 142 93 l31 47 1 322 c1 215 5 326 13 335 14 17 209 18 226 1 15 -15 17 -505 2 -628 -12 -96 -39 -187 -73 -243 -55 -91 -191 -197 -252 -197 -12 0 -24 -3 -28 -6 -7 -7 -114 -8 -137 -1 -8 2 -32 10 -53 17 -21 6 -41 9 -44 6 -3 -3 -5 -120 -4 -260 2 -171 -1 -256 -9 -261 -11 -7 -190 57 -227 81 l-23 14 0 732 c1 511 4 736 12 745 13 16 200 18 229 2z m3290 1 c19 -10 19 -30 19 -790 0 -534 -3 -781 -11 -785 -5 -4 -61 12 -123 35 -106 39 -114 44 -120 72 -10 52 -7 1424 4 1452 9 26 11 26 110 26 56 0 110 -5 121 -10z m4297 -554 c1 -303 -1 -553 -5 -557 -9 -9 -214 69 -225 86 -10 13 -10 1009 -1 1019 4 3 57 5 117 4 l111 -3 3 -549z"/>
 <path d="M2974 6607 c4 -35 18 -117 32 -183 13 -65 26 -141 29 -168 3 -27 17 -108 31 -180 14 -72 27 -138 28 -146 1 -13 -21 -15 -139 -16 -149 0 -203 -10 -325 -60 -117 -47 -340 -211 -340 -249 0 -7 -6 -15 -14 -18 -39 -15 -161 -225 -204 -352 -51 -149 -56 -181 -56 -385 0 -214 3 -248 28 -332 l16 -56 78 0 c76 0 132 -15 193 -51 29 -18 109 -88 109 -96 0 -3 11 -22 24 -43 14 -20 32 -64 41 -97 9 -33 19 -67 22 -75 7 -19 7 -141 0 -160 -3 -8 -13 -40 -21 -70 -17 -63 -93 -190 -122 -205 -10 -6 -39 -22 -64 -37 -55 -32 -161 -62 -192 -55 -90 22 -113 30 -148 52 -22 14 -43 25 -48 25 -4 0 -32 31 -61 70 -55 72 -92 165 -106 265 -9 69 16 180 61 269 l36 73 -17 54 c-19 62 -52 231 -60 304 -8 68 -9 270 -3 281 5 8 17 89 24 164 1 14 3 25 4 25 1 0 9 29 19 65 11 36 26 86 34 113 16 46 15 48 -6 68 -12 12 -54 37 -92 55 -265 128 -574 5 -718 -286 -58 -117 -75 -204 -72 -358 2 -126 9 -142 53 -126 41 14 141 1 205 -29 52 -23 177 -134 177 -156 0 -5 12 -34 26 -66 21 -45 28 -80 33 -159 6 -93 4 -107 -21 -180 -32 -92 -64 -141 -130 -201 -70 -63 -142 -88 -243 -83 -101 4 -159 31 -235 107 -141 143 -172 370 -76 559 l24 48 -18 90 c-33 159 -43 231 -36 258 8 34 -8 33 -32 -1 -102 -148 -195 -418 -207 -608 -2 -22 -4 -42 -5 -45 -7 -13 -6 -272 1 -276 4 -2 6 -16 4 -32 -11 -85 59 -340 135 -497 27 -55 73 -136 102 -180 57 -86 223 -265 245 -265 7 0 13 -4 13 -9 0 -14 118 -95 198 -135 88 -45 231 -93 298 -102 192 -25 405 -6 539 47 l60 24 2 85 c1 47 4 92 6 100 3 8 11 33 17 55 29 94 120 209 199 250 109 56 230 47 351 -26 57 -33 72 -49 113 -116 98 -164 103 -356 11 -508 -19 -32 -34 -61 -34 -65 0 -18 -48 -51 -148 -101 -55 -27 -73 -32 -133 -30 -97 2 -157 27 -250 102 l-26 21 -59 -25 c-33 -14 -98 -35 -144 -47 -47 -11 -92 -23 -100 -26 -23 -9 -75 -14 -194 -17 -76 -2 -111 -7 -114 -15 -6 -19 196 -212 275 -264 126 -84 306 -160 411 -175 60 -8 353 -8 412 0 111 16 281 88 415 175 79 52 295 261 295 286 0 9 4 16 10 16 21 0 121 174 185 322 50 116 85 253 100 393 2 17 7 58 11 92 7 62 7 62 -22 74 -140 58 -203 102 -236 167 -11 20 -26 47 -33 58 -34 54 -61 256 -42 314 3 8 11 33 17 55 21 68 68 141 125 193 47 43 76 59 165 89 52 18 197 -9 249 -47 16 -11 33 -20 38 -20 4 -1 27 -25 50 -54 98 -122 137 -280 105 -419 -15 -64 -59 -162 -83 -183 -11 -9 -19 -23 -19 -31 0 -7 -6 -13 -13 -13 -6 0 -27 -16 -45 -36 -32 -35 -33 -39 -33 -118 3 -357 -151 -779 -389 -1065 -27 -33 -50 -64 -50 -70 0 -12 -152 -141 -250 -213 -57 -41 -68 -54 -58 -63 36 -34 283 -45 402 -18 301 68 554 307 672 634 14 38 22 78 19 88 -3 11 -22 32 -43 47 -110 84 -170 211 -172 369 -2 97 24 190 75 265 19 29 35 55 35 59 0 18 135 95 196 111 60 17 75 17 124 6 85 -20 146 -54 201 -110 121 -124 162 -310 105 -480 -43 -127 -107 -204 -217 -259 l-62 -32 -28 -90 c-32 -103 -30 -108 46 -100 304 36 552 269 651 610 22 78 26 110 26 235 0 80 -2 166 -6 191 -11 84 -63 230 -108 304 -42 70 -82 125 -89 125 -5 0 -30 -15 -56 -34 -27 -18 -66 -39 -88 -46 -22 -7 -47 -16 -55 -20 -19 -8 -97 -7 -106 3 -4 4 -17 7 -29 7 -35 0 -117 47 -166 95 -83 82 -141 221 -141 339 0 72 39 201 80 261 15 22 30 48 34 58 4 9 18 21 31 26 12 5 28 16 35 24 7 8 40 27 74 42 112 50 260 29 348 -51 21 -19 43 -34 49 -34 6 0 11 -5 11 -11 0 -6 14 -31 32 -56 49 -72 70 -152 72 -271 1 -90 4 -106 21 -121 11 -9 25 -24 30 -33 44 -71 88 -128 100 -128 18 0 83 87 123 165 39 76 80 196 88 255 11 89 13 246 3 323 -16 127 -94 315 -161 387 -15 17 -28 35 -28 38 0 10 -93 102 -102 102 -4 0 -20 12 -35 26 -61 57 -255 131 -312 119 -14 -2 -30 0 -38 6 -7 7 -26 9 -45 5 -18 -4 -49 -7 -68 -7 -46 0 -135 -26 -150 -44 -8 -9 -9 -25 -5 -42 10 -40 8 -141 -4 -189 -15 -59 -49 -134 -77 -171 -13 -17 -24 -35 -24 -40 -1 -19 -123 -93 -181 -110 -77 -22 -105 -22 -185 1 -121 35 -228 149 -266 283 -83 294 103 590 367 584 59 -2 83 -8 154 -43 l85 -40 90 30 c94 32 196 52 259 52 20 0 37 5 37 11 0 14 -57 96 -73 106 -8 4 -16 15 -20 24 -8 22 -136 132 -205 177 -77 49 -172 90 -261 114 -89 23 -259 32 -346 17 -397 -66 -727 -409 -819 -851 -15 -76 -15 -77 58 -113 74 -37 147 -132 183 -239 46 -135 26 -304 -48 -413 -16 -23 -29 -45 -29 -48 0 -8 -37 -39 -92 -77 -40 -28 -152 -68 -188 -68 -35 0 -147 40 -185 66 -20 13 -38 24 -40 24 -5 0 -55 50 -55 55 0 2 -14 26 -30 52 -86 136 -94 320 -19 478 26 55 116 150 166 177 19 10 34 26 36 40 54 294 116 462 244 649 26 39 53 78 58 87 6 8 25 29 43 46 19 16 38 40 43 52 4 13 21 31 36 41 15 10 53 38 84 63 30 26 72 56 92 69 20 12 37 28 37 35 0 7 -22 32 -50 55 -27 23 -50 48 -50 55 0 7 -69 80 -153 162 -84 82 -168 168 -187 192 -49 62 -64 57 -56 -21z"/>
 <path d="M4103 5313 c-71 -40 -108 -134 -84 -215 14 -45 78 -114 116 -124 71 -18 149 33 179 115 27 76 12 137 -52 202 -40 41 -109 50 -159 22z"/>
 <path d="M2905 4850 c-39 -17 -84 -75 -94 -122 -23 -100 21 -187 111 -219 117 -41 232 107 185 239 -15 39 -61 90 -94 103 -30 11 -81 11 -108 -1z"/>
 <path d="M1031 4413 c-18 -9 -46 -34 -61 -55 -58 -79 -48 -172 26 -243 39 -39 49 -43 91 -43 67 1 110 29 139 92 29 61 30 107 5 161 -42 90 -123 126 -200 88z"/>
 <path d="M4669 4347 c-106 -71 -103 -253 6 -314 48 -27 85 -29 128 -7 90 47 123 158 75 254 -44 86 -137 116 -209 67z"/>
 <path d="M2083 4183 c-78 -43 -113 -146 -78 -229 45 -109 156 -144 236 -77 40 34 59 79 59 142 0 61 -12 95 -48 130 -54 55 -110 66 -169 34z"/>
 <path d="M3671 3952 c-68 -32 -107 -138 -81 -217 15 -44 79 -112 115 -121 78 -20 164 43 183 133 7 29 10 58 8 65 -3 7 -7 26 -11 42 -5 26 -73 104 -92 107 -46 8 -96 4 -122 -9z"/>
 <path d="M4370 3182 c-19 -10 -48 -38 -65 -61 -58 -82 -33 -212 49 -262 67 -41 159 -16 200 53 31 54 35 140 10 195 -37 76 -128 111 -194 75z"/>
 <path d="M2405 3041 c-61 -29 -90 -80 -90 -161 0 -57 4 -73 28 -108 34 -48 78 -71 127 -67 19 1 40 3 47 4 7 1 28 15 48 32 48 42 71 119 55 181 -15 56 -54 107 -96 124 -44 19 -71 17 -119 -5z"/>
 <path d="M14705 4841 c-43 -20 -104 -82 -132 -134 -13 -24 -17 -56 -17 -127 0 -107 11 -138 73 -203 51 -55 86 -70 156 -70 143 0 235 113 231 283 -3 126 -44 197 -138 244 -62 31 -117 33 -173 7z"/>
 <path d="M9358 4848 c-44 -12 -127 -87 -154 -138 -25 -50 -27 -200 -3 -258 28 -65 96 -126 158 -140 108 -25 204 25 257 135 37 75 39 184 4 257 -32 67 -93 123 -154 141 -56 17 -56 17 -108 3z"/>
 <path d="M10458 4848 c-49 -13 -131 -90 -157 -148 -15 -32 -21 -66 -21 -120 0 -181 127 -303 278 -269 125 28 214 184 182 321 -27 116 -85 186 -176 214 -53 16 -55 16 -106 2z"/>
 </g>
<g id="layer104" fill="#b1b1b1" stroke="none">
 <path d="M0 4500 l0 -4500 8000 0 8000 0 0 4500 0 4500 -8000 0 -8000 0 0 -4500z m3115 2406 c154 -160 354 -366 445 -459 l166 -170 74 18 c97 23 299 28 405 10 364 -61 702 -331 880 -702 36 -75 40 -80 105 -115 229 -125 424 -379 495 -643 18 -65 19 -72 39 -190 14 -81 15 -243 2 -325 -13 -77 -54 -243 -71 -285 -54 -132 -138 -266 -222 -356 l-43 -46 16 -74 c9 -41 19 -90 22 -109 9 -48 9 -365 0 -415 -45 -266 -157 -486 -338 -663 -180 -177 -404 -270 -650 -270 -58 0 -110 0 -116 -1 -6 -1 -27 -25 -47 -53 -117 -169 -308 -321 -498 -396 -144 -57 -199 -67 -384 -67 -204 0 -277 16 -454 102 -110 53 -115 54 -160 44 -231 -53 -501 -42 -716 30 -112 38 -272 121 -373 196 -77 56 -241 215 -297 287 -42 53 -120 173 -147 222 -19 36 -33 47 -107 80 -154 69 -280 161 -422 305 -201 206 -356 495 -421 784 -43 192 -51 283 -45 490 3 99 8 191 10 205 3 14 8 43 12 65 70 433 333 860 670 1085 28 19 74 57 103 85 68 66 187 137 287 170 65 22 100 27 190 28 117 2 160 -4 240 -30 57 -18 157 -66 197 -95 32 -22 24 -28 102 77 57 78 204 219 281 272 131 88 335 171 449 182 10 1 -6 144 -28 256 -3 11 -7 34 -10 50 -31 183 -48 281 -60 335 -8 36 -17 92 -21 125 -3 33 -12 92 -20 130 -7 39 -17 88 -21 110 -4 22 -9 47 -11 55 -7 35 -23 147 -23 170 0 28 11 18 515 -504z m3280 -1768 c132 -3 143 -4 187 -31 52 -30 110 -95 132 -149 29 -69 48 -186 36 -223 -6 -18 -10 -37 -8 -41 7 -22 -46 -136 -83 -178 -62 -70 -127 -100 -213 -98 -80 2 -116 -14 -116 -53 0 -51 16 -55 210 -55 153 0 179 -2 184 -16 10 -26 7 -282 -4 -289 -5 -3 -102 -6 -215 -6 -195 0 -209 2 -253 23 -145 71 -214 244 -179 448 5 30 41 103 71 143 53 73 152 117 261 117 26 0 50 6 59 16 22 21 20 61 -3 74 -12 6 -100 10 -215 10 -124 0 -196 4 -196 10 -3 80 0 292 3 297 3 5 49 7 104 6 54 -2 161 -4 238 -5z m1092 -9 c42 -13 93 -42 142 -78 43 -32 123 -130 119 -146 -3 -13 -185 -165 -197 -165 -4 0 -28 19 -52 43 -43 41 -101 67 -150 67 -41 0 -125 -46 -153 -83 -92 -120 -84 -290 18 -392 47 -47 103 -66 168 -58 53 6 74 16 124 65 l41 39 74 -59 c125 -101 132 -108 118 -134 -20 -38 -99 -116 -150 -149 -96 -61 -203 -81 -320 -59 -160 31 -303 170 -363 354 -22 68 -26 96 -26 206 0 110 4 138 26 206 57 177 207 325 358 353 54 11 178 5 223 -10z m2015 7 c168 -20 345 -222 384 -436 11 -61 6 -213 -10 -277 -24 -103 -83 -210 -153 -280 -73 -71 -139 -106 -240 -128 -65 -13 -81 -13 -145 0 -94 20 -163 55 -227 116 -140 133 -209 349 -177 549 9 62 53 180 88 237 65 108 202 208 301 220 23 2 43 5 44 6 3 3 87 -1 135 -7z m5395 0 c11 -3 35 -12 52 -20 30 -16 71 -22 58 -9 -4 3 -2 12 4 20 16 18 222 19 237 0 16 -19 16 -1095 1 -1114 -8 -9 -41 -13 -119 -13 -112 0 -137 9 -124 44 8 21 -2 20 -90 -9 -161 -54 -316 -14 -445 116 -107 109 -166 259 -166 429 0 273 160 504 385 557 49 11 146 11 207 -1z m-6747 -12 c5 -5 11 -158 12 -340 l3 -331 28 -40 c79 -114 212 -107 284 15 l28 47 2 324 c2 178 5 326 7 329 6 6 236 5 242 -1 7 -6 6 -655 -1 -692 -11 -59 -46 -153 -74 -197 -42 -66 -123 -141 -187 -172 -75 -37 -198 -47 -273 -22 -27 9 -52 16 -55 16 -3 0 -6 -119 -6 -265 0 -211 -3 -265 -13 -265 -18 0 -218 79 -234 92 -10 8 -13 160 -13 752 0 456 4 746 10 752 11 11 228 10 240 -2z m2567 -31 c144 -86 240 -230 268 -402 12 -75 7 -206 -11 -278 -39 -160 -145 -298 -277 -362 -25 -12 -77 -28 -116 -36 -63 -14 -79 -14 -142 0 -119 24 -197 72 -279 171 -149 180 -173 470 -59 696 42 83 144 184 229 225 63 31 68 32 190 30 l125 -2 72 -42z m722 32 c13 -7 16 -1591 4 -1598 -8 -4 -237 84 -248 95 -6 6 -8 1496 -1 1506 5 9 231 6 245 -3z m4286 6 c9 -16 6 -1136 -3 -1139 -10 -3 -213 76 -225 87 -9 9 -11 1037 -2 1052 8 12 222 12 230 0z"/>
 <path d="M2978 6654 c-6 -5 5 -80 27 -174 3 -14 10 -52 15 -85 5 -33 11 -71 14 -85 3 -14 8 -45 11 -70 3 -25 8 -52 10 -60 3 -8 7 -31 10 -50 5 -36 12 -76 21 -122 12 -62 13 -89 1 -93 -7 -2 -73 -6 -147 -9 -156 -5 -244 -26 -361 -85 -275 -138 -476 -416 -544 -751 -18 -88 -20 -114 -19 -250 0 -139 15 -249 44 -324 10 -27 13 -28 53 -23 88 12 198 -28 278 -101 133 -122 184 -327 124 -503 -61 -178 -184 -284 -343 -293 -114 -7 -211 32 -289 117 -137 149 -162 378 -62 571 l30 59 -21 85 c-12 47 -24 97 -26 111 -3 14 -9 42 -13 61 -12 53 -15 91 -15 255 0 185 7 238 51 405 13 52 29 103 35 113 13 25 -16 56 -85 90 -121 59 -276 70 -392 29 -83 -30 -188 -105 -246 -174 -56 -67 -121 -195 -144 -283 -19 -73 -21 -300 -3 -311 6 -4 50 -8 97 -9 183 -3 316 -114 375 -314 24 -83 16 -238 -17 -318 -32 -78 -84 -147 -147 -194 -71 -53 -135 -72 -228 -67 -97 5 -172 40 -241 113 -84 89 -122 181 -127 310 -4 102 13 182 53 257 l26 47 -17 60 c-20 70 -24 97 -32 206 -3 44 -8 82 -10 84 -7 7 -29 -28 -77 -123 -69 -137 -125 -317 -146 -466 -10 -70 -8 -441 3 -458 3 -5 8 -25 10 -44 8 -60 57 -220 96 -309 157 -367 447 -633 793 -728 91 -25 254 -44 312 -36 22 3 60 8 85 10 80 10 146 26 223 55 l55 21 0 88 c1 188 108 356 267 417 76 29 194 26 266 -7 104 -49 205 -176 231 -292 13 -55 13 -201 1 -254 -29 -120 -125 -242 -230 -291 -50 -23 -71 -27 -148 -26 -103 0 -152 17 -224 78 -28 24 -50 35 -60 30 -9 -3 -69 -23 -133 -45 -123 -41 -237 -59 -370 -59 -42 0 -79 -4 -82 -8 -13 -22 149 -180 261 -255 130 -87 328 -167 453 -184 71 -9 259 -9 330 0 76 11 230 62 320 107 235 118 442 333 572 595 90 181 158 442 154 594 l-1 54 -42 12 c-99 30 -180 98 -234 198 -55 104 -71 192 -56 312 18 145 113 282 237 343 102 50 249 38 344 -27 117 -81 186 -210 191 -361 6 -153 -36 -268 -136 -372 l-59 -61 -1 -76 c-2 -113 -3 -129 -29 -281 -73 -425 -318 -825 -659 -1075 -60 -44 -63 -49 -46 -61 10 -8 28 -14 39 -15 12 0 32 -3 46 -6 14 -3 61 -6 105 -7 240 -3 484 109 646 297 99 114 169 236 215 370 l23 68 -42 30 c-94 66 -158 176 -180 304 -35 208 65 417 238 500 52 25 71 29 145 28 75 0 92 -4 147 -32 162 -81 255 -260 240 -458 -13 -162 -109 -309 -241 -372 l-62 -29 -26 -86 c-14 -48 -21 -89 -17 -92 16 -10 104 5 186 31 248 78 443 305 518 603 23 91 25 115 21 254 -3 144 -6 160 -40 262 -40 121 -83 208 -130 262 l-31 36 -27 -21 c-15 -12 -53 -34 -85 -49 -49 -23 -71 -27 -143 -27 -71 1 -94 5 -140 28 -103 49 -199 169 -230 286 -19 71 -14 216 9 291 69 220 288 343 483 270 171 -64 279 -246 272 -460 -1 -41 1 -77 5 -80 11 -8 97 -123 110 -147 18 -34 33 -28 75 28 64 86 138 254 152 344 18 118 22 222 10 305 -13 95 -16 110 -37 172 -87 255 -275 447 -502 513 -83 24 -264 23 -337 -2 l-54 -18 -1 -120 c-1 -105 -4 -128 -27 -182 -51 -120 -124 -200 -224 -244 -75 -34 -200 -32 -275 2 -106 50 -186 143 -227 266 -40 121 -22 297 41 406 34 57 127 144 182 168 101 45 250 31 340 -31 l43 -30 44 19 c71 32 181 58 254 60 38 1 73 6 78 11 21 21 -156 213 -263 285 -82 54 -191 104 -281 130 -67 19 -292 27 -370 12 -107 -19 -256 -84 -354 -154 -70 -50 -182 -165 -238 -243 -62 -88 -130 -222 -157 -311 -59 -195 -59 -195 -1 -226 165 -88 259 -303 221 -508 -25 -136 -124 -270 -238 -322 -83 -38 -203 -38 -286 0 -277 126 -332 559 -98 770 22 20 53 43 70 51 34 18 38 28 50 117 47 343 279 722 558 912 34 23 63 46 63 51 0 5 -85 97 -188 205 -104 108 -197 206 -208 219 -25 30 -80 73 -86 66z"/>
 <path d="M4125 5313 c-29 -7 -75 -53 -91 -90 -33 -76 -4 -174 65 -220 39 -26 77 -29 126 -9 106 44 120 226 24 298 -27 20 -89 31 -124 21z"/>
 <path d="M2904 4838 c-108 -54 -120 -230 -21 -302 39 -29 115 -28 154 0 80 60 95 190 29 262 -23 26 -88 62 -108 61 -7 0 -32 -10 -54 -21z"/>
 <path d="M1033 4405 c-74 -32 -113 -157 -72 -236 19 -39 71 -88 95 -90 8 -1 23 -1 34 -1 42 0 50 3 86 34 67 59 82 138 42 218 -40 79 -111 108 -185 75z"/>
 <path d="M4694 4351 c-48 -22 -77 -59 -94 -119 -29 -111 74 -233 175 -208 74 19 136 128 116 203 -17 62 -48 103 -94 123 -52 24 -52 24 -103 1z"/>
 <path d="M2114 4187 c-71 -27 -101 -67 -109 -148 -8 -67 22 -132 75 -167 42 -29 104 -25 152 9 35 26 67 90 68 137 0 107 -102 200 -186 169z"/>
 <path d="M3675 3945 c-17 -8 -43 -35 -59 -58 -53 -81 -21 -208 64 -252 128 -66 259 103 187 242 -38 73 -124 103 -192 68z"/>
 <path d="M4386 3180 c-96 -30 -136 -174 -75 -265 31 -46 98 -79 140 -70 17 4 48 22 69 41 127 115 23 343 -134 294z"/>
 <path d="M2400 3028 c-50 -34 -72 -71 -78 -126 -6 -64 10 -110 52 -151 66 -64 159 -51 213 30 54 82 20 220 -62 255 -49 20 -87 17 -125 -8z"/>
 <path d="M9335 4828 c-98 -50 -147 -134 -147 -253 0 -85 19 -135 70 -188 51 -53 86 -69 151 -69 72 0 101 12 149 60 55 55 81 129 76 216 -6 112 -57 192 -150 236 -55 25 -98 25 -149 -2z"/>
 <path d="M14705 4830 c-22 -11 -54 -36 -72 -56 -76 -86 -95 -198 -53 -310 16 -40 76 -112 110 -129 34 -18 151 -20 183 -4 118 61 173 241 113 371 -32 69 -51 90 -111 122 -60 31 -114 33 -170 6z"/>
 <path d="M10433 4829 c-113 -55 -180 -213 -141 -328 34 -98 99 -166 172 -180 132 -24 224 40 261 184 20 76 19 110 -9 177 -31 76 -61 111 -121 140 -63 31 -109 33 -162 7z"/>
 </g>
<g id="layer105" fill="#d2d2d2" stroke="none">
 <path d="M0 4500 l0 -4500 8000 0 8000 0 0 4500 0 4500 -8000 0 -8000 0 0 -4500z m2614 2934 c9 -3 16 -10 16 -15 0 -5 61 -68 135 -140 74 -73 135 -137 135 -144 0 -7 9 -15 20 -18 11 -3 23 -13 27 -24 4 -10 67 -76 140 -147 73 -70 133 -134 133 -142 0 -8 6 -14 14 -14 8 0 24 -13 35 -29 12 -16 80 -87 151 -157 72 -70 130 -133 130 -139 0 -7 40 -49 90 -94 l90 -82 74 16 c41 9 82 16 93 14 10 -1 25 1 35 5 9 4 58 5 110 2 51 -3 104 -5 118 -6 79 -2 248 -54 365 -113 75 -37 200 -123 225 -154 10 -12 22 -23 27 -23 13 0 108 -101 166 -177 55 -72 123 -184 159 -265 21 -46 34 -61 70 -79 345 -176 573 -579 571 -1014 -1 -111 -6 -175 -14 -181 -5 -3 -7 -9 -4 -15 3 -5 -6 -58 -20 -118 -44 -182 -183 -435 -276 -501 -34 -25 -34 -21 -4 -160 18 -81 24 -336 11 -468 -10 -101 -65 -274 -123 -385 -52 -98 -127 -207 -143 -207 -6 0 -10 -6 -10 -14 0 -16 -124 -134 -185 -176 -110 -76 -283 -146 -382 -156 -139 -14 -172 -15 -211 -6 l-43 10 -73 -91 c-150 -188 -300 -302 -501 -380 -115 -44 -209 -60 -365 -61 -197 -2 -365 40 -515 127 l-49 29 -79 -17 c-43 -9 -85 -14 -94 -11 -8 4 -22 1 -29 -5 -8 -6 -30 -9 -53 -5 -22 3 -43 1 -46 -4 -8 -13 -112 -13 -120 0 -4 6 -25 8 -54 4 -30 -4 -51 -2 -55 4 -4 6 -13 9 -21 6 -41 -16 -268 56 -415 132 -141 74 -229 140 -365 279 -114 115 -193 217 -255 327 -30 54 -37 60 -118 98 -153 72 -262 149 -394 279 -49 47 -88 92 -88 99 0 6 -4 12 -10 12 -14 0 -108 130 -164 225 -65 112 -130 267 -166 394 -17 60 -30 112 -29 117 1 5 0 16 -4 24 -16 42 -36 217 -31 264 4 35 3 56 -5 60 -14 9 -14 103 0 112 7 4 9 27 4 69 -4 40 -3 65 4 69 6 4 8 12 5 19 -2 7 1 35 6 62 6 28 11 59 11 70 -1 97 112 408 206 568 87 149 283 387 318 387 7 0 15 7 18 15 4 8 48 45 99 83 51 38 102 79 113 91 36 41 152 121 219 151 67 31 184 63 215 59 9 -1 24 1 33 5 10 5 43 5 75 2 32 -3 65 -6 73 -6 83 -6 245 -67 322 -122 l27 -19 57 78 c109 149 252 272 424 365 67 37 243 98 283 98 27 0 51 15 44 26 -2 5 -15 70 -27 144 -12 74 -28 168 -37 208 -8 40 -13 76 -9 79 3 3 1 12 -5 19 -5 7 -12 34 -14 61 -2 26 -6 55 -8 63 -8 22 -68 367 -66 377 1 4 0 15 -4 23 -10 28 -38 202 -33 208 3 3 1 11 -5 18 -6 7 -8 18 -4 24 7 12 8 12 29 4z m3938 -2301 c70 -32 134 -97 171 -172 31 -63 32 -71 32 -181 -1 -107 -3 -120 -31 -180 -33 -70 -95 -135 -161 -169 -25 -12 -71 -22 -126 -27 -81 -6 -88 -9 -93 -31 -12 -48 4 -52 200 -55 l181 -3 3 -162 c2 -162 2 -163 -20 -168 -19 -5 -329 -1 -403 4 -31 3 -121 59 -154 97 -41 46 -76 117 -90 182 -12 58 -15 145 -5 155 4 4 8 22 10 41 5 55 58 149 111 196 52 46 107 74 129 66 7 -3 16 -1 19 4 4 6 32 10 64 10 31 0 62 5 69 12 17 17 15 42 -7 62 -17 15 -42 17 -211 15 l-192 -1 0 161 c1 88 1 164 1 167 1 3 103 4 229 2 207 -3 231 -5 274 -25z m898 16 c74 -16 144 -55 209 -116 59 -54 101 -109 101 -130 0 -13 -166 -151 -198 -166 -21 -10 -27 -7 -55 25 -29 33 -124 88 -152 88 -6 0 -39 -13 -72 -29 -68 -33 -119 -97 -130 -163 -3 -21 -10 -41 -14 -44 -5 -3 -9 -18 -9 -34 0 -16 4 -31 9 -34 4 -3 11 -23 15 -44 3 -21 17 -55 31 -76 14 -20 25 -40 25 -44 0 -4 23 -18 50 -32 94 -46 204 -22 255 56 8 13 21 24 28 24 15 0 60 -35 120 -92 22 -21 43 -38 46 -38 4 0 18 -11 30 -24 l23 -25 -21 -34 c-29 -47 -129 -141 -177 -165 -101 -51 -254 -64 -350 -29 -143 52 -258 178 -317 346 -27 78 -30 98 -30 211 0 113 3 133 30 211 93 264 317 409 553 358z m2055 -3 c165 -35 295 -162 366 -356 31 -86 51 -261 31 -274 -5 -3 -8 -15 -5 -26 14 -55 -72 -251 -147 -333 -56 -61 -123 -108 -190 -133 -67 -25 -220 -26 -289 -3 -156 54 -262 175 -330 378 -17 50 -22 87 -22 176 0 100 4 123 30 200 35 100 84 191 112 205 10 6 19 17 19 24 0 15 87 84 137 110 43 22 138 44 188 45 22 0 67 -6 100 -13z m1100 0 c74 -16 135 -46 198 -99 82 -68 174 -227 182 -312 2 -22 5 -40 6 -40 9 0 3 -234 -8 -284 -36 -168 -172 -331 -323 -387 -68 -25 -220 -26 -288 -3 -175 60 -314 237 -339 429 -8 64 -9 211 -2 216 4 2 6 14 3 27 -12 65 70 237 157 324 115 117 261 162 414 129z m4280 0 c28 -7 61 -19 74 -26 20 -10 25 -10 33 4 13 24 263 24 272 0 9 -24 7 -1097 -2 -1112 -7 -9 -41 -12 -138 -10 -122 3 -129 4 -132 24 l-3 21 -68 -23 c-165 -56 -345 -5 -472 133 -100 111 -148 247 -148 423 0 62 7 132 16 170 68 279 328 460 568 396z m-6715 -353 l5 -340 29 -37 c34 -45 89 -80 125 -80 63 1 136 66 160 146 13 44 16 105 16 353 l0 300 130 0 130 0 -2 -345 c-2 -388 -3 -394 -32 -471 -43 -114 -132 -213 -237 -265 -75 -37 -229 -41 -306 -9 -17 7 -18 -9 -18 -251 0 -143 -4 -265 -8 -272 -6 -9 -36 -1 -120 33 -62 24 -121 49 -132 55 -20 11 -20 24 -20 764 0 414 2 755 4 757 2 2 64 4 138 3 l133 -1 5 -340z m3288 -460 c2 -633 -1 -803 -10 -810 -9 -8 -50 4 -138 39 l-125 50 0 762 0 761 135 -1 135 -1 3 -800z m1301 764 c125 -62 235 -200 269 -337 30 -119 34 -184 17 -279 -26 -152 -66 -235 -157 -329 -214 -222 -554 -163 -711 122 -54 99 -71 171 -71 301 0 133 19 209 75 309 73 129 194 226 307 246 26 5 83 7 127 4 64 -4 93 -11 144 -37z m2985 27 c3 -9 6 -262 6 -564 0 -302 -3 -555 -6 -564 -3 -9 -14 -16 -23 -16 -25 0 -234 88 -243 103 -9 14 -11 1017 -2 1041 5 13 27 16 134 16 107 0 129 -3 134 -16z m-2234 -409 l5 -410 130 -5 130 -5 0 -130 0 -130 -130 -5 -130 -5 1 -51 c3 -104 89 -222 190 -259 27 -10 55 -23 62 -28 14 -11 18 -262 3 -271 -4 -3 -35 -1 -68 4 -171 28 -331 178 -400 375 l-28 80 -3 628 -3 628 118 -3 118 -3 5 -410z"/>
 <path d="M2990 6631 c0 -8 9 -68 20 -134 12 -66 18 -122 16 -125 -3 -3 -2 -10 3 -16 11 -14 34 -146 27 -154 -3 -3 -2 -10 3 -16 6 -7 12 -34 15 -61 3 -28 10 -66 15 -85 6 -19 10 -44 11 -55 0 -11 1 -33 2 -50 l3 -30 -120 -2 c-212 -5 -383 -57 -521 -160 -17 -13 -35 -23 -40 -24 -14 -1 -171 -178 -210 -237 -101 -152 -186 -396 -184 -524 1 -25 -4 -49 -10 -53 -13 -8 -13 -142 1 -150 6 -4 9 -26 8 -49 -1 -22 0 -48 3 -56 3 -8 13 -50 23 -92 19 -86 11 -81 112 -80 24 1 68 -8 99 -18 57 -20 154 -84 154 -102 0 -6 10 -18 23 -28 36 -28 85 -146 98 -233 31 -211 -66 -414 -240 -500 -58 -28 -75 -32 -151 -32 -72 0 -94 4 -145 28 -63 30 -145 105 -187 172 -85 137 -87 367 -3 509 17 29 25 55 22 69 -3 12 -17 66 -31 119 -56 215 -56 522 1 737 52 197 50 181 22 201 -76 58 -304 122 -323 91 -4 -6 -19 -11 -33 -11 -48 0 -132 -31 -194 -73 -34 -23 -71 -46 -81 -52 -10 -5 -18 -15 -18 -22 0 -6 -4 -13 -8 -15 -19 -7 -87 -107 -118 -172 -18 -38 -38 -94 -45 -125 -6 -31 -13 -63 -16 -71 -9 -29 -4 -205 6 -233 10 -25 13 -27 33 -16 32 17 141 4 204 -25 31 -14 80 -50 113 -83 99 -99 141 -207 137 -358 -3 -111 -26 -189 -81 -270 -82 -120 -185 -174 -326 -171 -73 2 -95 7 -145 32 -218 110 -307 412 -191 647 19 37 31 70 27 72 -9 5 -29 97 -35 160 -3 28 -9 75 -13 105 l-8 55 -53 -104 c-108 -213 -163 -446 -162 -681 2 -136 6 -207 15 -230 3 -8 7 -35 10 -60 2 -25 6 -52 9 -60 3 -8 20 -60 37 -115 56 -178 159 -367 265 -485 22 -25 45 -54 51 -65 6 -11 20 -24 31 -30 10 -5 44 -31 74 -56 113 -96 266 -178 399 -214 36 -9 72 -20 80 -23 8 -3 21 -4 29 -3 7 1 20 -1 30 -4 26 -10 260 -6 321 6 76 14 185 48 205 63 15 10 18 31 20 107 4 135 41 225 131 313 151 149 361 153 513 11 89 -83 151 -230 151 -356 0 -121 -61 -267 -147 -351 -47 -45 -155 -104 -173 -93 -5 3 -11 1 -14 -4 -10 -16 -129 -10 -185 10 -29 10 -77 36 -106 58 l-54 41 -43 -15 c-24 -9 -57 -22 -74 -30 -17 -8 -87 -25 -156 -39 -101 -20 -142 -24 -210 -19 -92 6 -108 -1 -86 -38 24 -40 178 -175 264 -231 117 -75 281 -139 409 -158 44 -7 90 -16 103 -21 30 -12 124 -12 154 0 13 5 59 14 103 21 177 26 364 113 512 237 28 23 55 43 60 43 11 0 73 63 73 74 0 4 22 33 49 64 128 149 242 381 287 582 9 41 20 79 24 84 5 5 6 15 3 22 -3 8 -2 22 2 32 4 9 7 31 6 48 -1 18 2 35 7 38 11 6 6 86 -5 96 -5 4 -35 18 -68 31 -117 46 -234 194 -255 323 -10 62 -5 216 9 263 16 55 89 170 131 205 22 19 65 48 97 64 52 26 68 29 153 29 86 0 101 -3 154 -30 32 -16 65 -40 73 -52 9 -13 21 -23 27 -23 19 0 82 -97 112 -169 26 -66 44 -212 29 -248 -4 -10 -8 -31 -10 -48 -4 -57 -60 -159 -126 -229 l-63 -68 -2 -91 c-1 -51 -4 -110 -7 -132 -2 -22 -7 -61 -10 -87 -7 -62 -49 -220 -87 -331 -52 -152 -165 -358 -268 -487 -54 -68 -215 -229 -229 -230 -7 0 -13 -4 -13 -9 0 -6 -29 -31 -65 -58 -60 -44 -63 -48 -42 -57 46 -18 268 -19 351 -2 254 52 481 239 616 506 36 72 70 165 69 189 0 9 -23 33 -50 54 -60 46 -122 137 -145 215 -23 74 -26 211 -7 287 54 219 251 364 443 326 193 -38 339 -232 340 -451 0 -182 -103 -358 -250 -427 l-59 -28 -22 -78 c-12 -42 -20 -80 -17 -83 22 -21 208 32 298 85 363 216 511 704 341 1126 -30 74 -76 158 -108 196 -13 15 -19 14 -71 -17 -31 -19 -79 -41 -106 -49 -56 -17 -142 -20 -151 -5 -3 5 -12 7 -19 4 -7 -3 -38 7 -69 21 -160 76 -250 233 -248 435 1 73 3 87 21 148 34 117 122 221 229 270 47 23 70 27 146 27 76 0 99 -4 145 -26 109 -51 197 -159 235 -286 16 -53 16 -54 15 -171 0 -71 3 -84 21 -100 11 -9 41 -46 67 -81 l46 -64 37 44 c67 78 137 240 158 365 23 128 11 334 -25 442 -72 215 -214 387 -390 473 -156 76 -309 88 -461 38 l-33 -10 7 -74 c16 -197 -84 -388 -245 -467 -59 -29 -76 -33 -152 -33 -74 0 -93 4 -151 31 -88 42 -153 109 -201 211 -36 75 -40 89 -43 179 -2 54 0 120 6 147 12 64 56 163 83 185 12 10 26 27 32 37 6 11 38 39 72 61 94 65 199 80 310 45 34 -10 73 -28 88 -40 35 -27 40 -27 148 10 70 25 109 32 171 33 100 1 104 12 37 92 -137 164 -325 286 -492 319 -19 4 -39 10 -44 13 -12 7 -68 11 -161 12 -126 2 -250 -28 -369 -86 -74 -37 -179 -108 -210 -143 -11 -11 -25 -21 -33 -21 -7 0 -17 -8 -20 -17 -4 -10 -27 -40 -51 -68 -113 -126 -201 -306 -247 -503 -16 -66 -14 -82 9 -82 22 0 136 -88 136 -105 0 -8 4 -15 10 -15 15 0 60 -76 82 -139 25 -73 32 -222 12 -297 -33 -128 -130 -250 -241 -302 -49 -23 -71 -27 -143 -27 -109 1 -176 30 -259 113 -95 95 -131 181 -136 327 -3 85 0 111 21 173 26 79 66 150 89 159 8 3 15 11 15 18 0 7 30 36 68 63 65 47 67 50 68 93 3 91 73 318 142 454 87 174 279 400 419 494 36 24 60 46 57 54 -10 23 -454 472 -454 458z"/>
 <path d="M4080 5272 c-43 -43 -56 -87 -46 -156 15 -97 122 -159 191 -112 43 30 62 55 80 107 15 45 15 49 -8 101 -31 70 -69 98 -132 98 -41 0 -52 -5 -85 -38z"/>
 <path d="M2913 4831 c-45 -21 -65 -45 -87 -108 -13 -38 -13 -46 7 -102 11 -34 25 -61 30 -61 5 0 20 -9 34 -20 31 -24 86 -25 132 -2 26 13 39 31 57 76 26 64 30 91 14 101 -5 3 -10 13 -10 22 0 23 -38 72 -68 87 -49 25 -67 26 -109 7z"/>
 <path d="M1030 4393 c-35 -15 -49 -37 -80 -119 -8 -22 -8 -38 -2 -50 6 -11 16 -34 23 -52 12 -35 57 -75 97 -87 51 -15 126 36 154 104 26 63 -12 174 -69 204 -41 21 -77 21 -123 0z"/>
 <path d="M4674 4332 c-60 -32 -86 -158 -46 -225 43 -73 120 -96 183 -54 65 43 87 137 52 222 -28 68 -118 95 -189 57z"/>
 <path d="M2068 4150 c-37 -30 -61 -83 -61 -130 0 -76 74 -160 141 -160 64 0 132 61 132 118 0 10 5 23 12 30 8 8 9 18 1 34 -6 13 -18 40 -26 61 -35 78 -133 102 -199 47z"/>
 <path d="M3659 3923 c-85 -72 -74 -220 21 -278 32 -20 39 -21 84 -10 52 13 73 33 106 99 25 51 25 56 -6 122 -31 66 -71 94 -131 94 -31 0 -50 -7 -74 -27z"/>
 <path d="M4395 3178 c-35 -19 -95 -81 -95 -98 0 -9 -3 -20 -7 -23 -10 -11 -7 -69 6 -102 50 -124 206 -131 251 -12 7 18 17 42 23 55 8 16 7 26 -1 34 -7 7 -12 22 -12 35 0 40 -90 124 -132 123 -7 0 -22 -6 -33 -12z"/>
 <path d="M2399 3017 c-110 -74 -80 -274 45 -294 44 -7 112 13 120 36 4 9 14 30 24 46 9 17 17 50 17 75 0 25 -8 59 -17 75 -10 17 -20 37 -24 46 -6 17 -65 39 -106 39 -14 0 -40 -10 -59 -23z"/>
 <path d="M9344 4821 c-76 -39 -88 -51 -119 -116 -56 -115 -32 -253 59 -333 36 -31 90 -52 136 -52 31 0 98 31 126 58 106 101 104 310 -2 403 -23 20 -123 69 -138 68 -6 -1 -34 -13 -62 -28z"/>
 <path d="M10490 4841 c-8 -5 -36 -18 -62 -29 -54 -24 -102 -83 -120 -146 -6 -23 -15 -45 -20 -50 -11 -14 -10 -64 2 -71 6 -3 10 -15 10 -26 0 -29 44 -110 77 -142 16 -15 53 -36 81 -46 47 -17 55 -18 94 -4 23 8 54 21 68 30 36 21 89 102 97 146 3 21 10 40 14 43 12 7 11 51 -1 59 -5 3 -10 16 -10 28 0 31 -43 118 -71 144 -19 17 -132 75 -142 72 -1 0 -9 -4 -17 -8z"/>
 <path d="M14702 4816 c-55 -23 -62 -32 -108 -124 -23 -46 -26 -63 -22 -125 2 -44 11 -86 22 -107 10 -19 24 -45 30 -57 6 -13 16 -23 22 -23 6 0 19 -9 28 -19 10 -11 39 -25 66 -31 99 -24 188 26 235 132 38 84 38 160 2 238 -30 65 -56 92 -117 119 -58 26 -92 26 -158 -3z"/>
 <path d="M12470 4817 c-46 -27 -60 -43 -89 -99 -27 -54 -34 -77 -34 -130 0 -83 16 -135 58 -190 83 -110 230 -122 324 -27 103 103 110 287 14 398 -75 89 -176 106 -273 48z"/>
 </g>
<g id="layer106" fill="#ffffff" stroke="none">
 <path d="M0 4500 l0 -4500 8000 0 8000 0 0 4500 0 4500 -8000 0 -8000 0 0 -4500z m2752 2808 c77 -79 192 -197 256 -264 381 -392 689 -709 705 -723 20 -18 64 -16 147 5 62 16 251 18 320 4 25 -6 69 -14 97 -19 112 -21 298 -108 424 -201 68 -50 259 -245 259 -265 0 -7 7 -19 16 -26 18 -15 84 -115 84 -128 0 -4 9 -20 21 -34 11 -15 27 -46 35 -69 12 -36 23 -48 72 -75 123 -67 311 -231 312 -271 0 -7 7 -15 15 -18 14 -6 52 -63 105 -158 40 -72 80 -186 107 -304 49 -218 32 -490 -44 -697 -56 -150 -131 -274 -236 -389 -22 -25 -35 -47 -31 -56 19 -51 44 -255 44 -366 1 -390 -142 -709 -422 -946 -37 -31 -82 -65 -100 -74 -18 -9 -35 -20 -38 -23 -9 -11 -124 -60 -204 -86 -67 -22 -94 -25 -220 -25 l-143 0 -41 -57 c-73 -101 -159 -185 -309 -299 -65 -49 -215 -114 -346 -149 -81 -21 -117 -25 -239 -25 -189 0 -315 30 -481 116 -82 41 -91 44 -125 34 -20 -6 -100 -17 -177 -24 -179 -18 -378 -3 -498 38 -42 14 -82 26 -87 26 -31 0 -307 151 -360 196 -8 7 -51 44 -95 82 -72 62 -130 123 -185 192 -70 89 -150 207 -150 220 0 18 -51 68 -77 75 -57 14 -247 131 -341 210 -120 101 -208 200 -309 346 -41 60 -133 240 -133 261 0 9 -4 19 -9 22 -19 12 -97 262 -111 356 -5 36 -14 85 -19 110 -25 124 -20 441 8 533 5 18 14 66 20 109 6 42 18 96 26 120 9 23 21 60 26 82 5 21 20 62 33 90 12 28 31 71 42 96 15 37 54 111 92 176 50 85 183 249 256 314 21 19 50 47 65 61 14 14 50 43 79 64 30 21 94 73 144 116 206 179 452 247 681 188 90 -24 193 -67 234 -99 14 -11 29 -20 34 -20 4 0 33 33 63 74 109 144 260 274 405 349 87 45 254 107 288 107 44 1 46 11 30 116 -9 55 -19 122 -22 149 -4 28 -13 73 -20 100 -8 28 -23 109 -34 180 -11 72 -27 166 -35 210 -32 169 -75 412 -79 452 -10 87 17 74 175 -89z m3762 -2150 c316 -92 352 -587 54 -739 -27 -14 -70 -23 -127 -27 -73 -6 -86 -10 -89 -26 -2 -10 2 -22 10 -27 7 -5 92 -9 189 -9 122 0 179 -4 187 -12 14 -14 17 -305 3 -326 -6 -10 -58 -12 -242 -10 l-234 3 -55 36 c-108 72 -170 196 -170 338 0 143 56 260 161 337 46 34 58 37 127 41 112 6 122 9 122 38 l0 25 -184 0 c-102 0 -196 4 -210 10 l-26 10 0 163 c0 113 4 167 12 175 17 17 415 17 472 0z m951 -2 c103 -27 195 -89 266 -178 50 -63 50 -87 2 -124 -21 -16 -69 -54 -107 -86 -38 -32 -74 -58 -81 -58 -6 0 -26 17 -43 39 -36 45 -100 81 -143 81 -36 0 -104 -33 -142 -68 -52 -49 -73 -186 -43 -287 26 -86 94 -135 188 -135 60 0 97 18 137 67 27 32 34 36 55 28 40 -16 216 -166 216 -185 0 -9 -16 -38 -35 -62 -34 -45 -133 -138 -147 -138 -3 0 -36 -13 -71 -30 -58 -27 -76 -30 -162 -30 -97 0 -101 1 -220 56 -76 35 -225 208 -225 261 0 10 -6 27 -13 38 -53 78 -57 389 -7 460 4 6 13 27 19 48 31 93 132 207 235 263 96 52 219 68 321 40z m2057 -2 c153 -39 258 -134 335 -302 60 -132 76 -268 48 -399 -46 -215 -154 -358 -334 -437 -55 -25 -76 -28 -160 -28 -84 0 -106 4 -155 26 -31 14 -59 26 -63 26 -12 0 -114 90 -149 132 -20 23 -45 61 -55 83 -76 169 -72 152 -77 294 -5 144 -1 166 50 291 100 245 328 373 560 314z m1085 5 c54 -13 127 -48 191 -91 84 -58 185 -230 202 -344 23 -162 7 -320 -42 -424 -65 -136 -143 -215 -273 -276 -70 -34 -82 -36 -174 -37 -96 0 -102 1 -183 41 -245 119 -362 390 -303 698 22 118 71 212 153 293 125 126 279 176 429 140z m4285 -3 c29 -8 61 -17 71 -21 10 -4 17 -3 17 4 0 8 43 11 148 9 l147 -3 3 -569 c1 -412 -1 -573 -9 -582 -9 -10 -42 -14 -131 -14 -120 0 -158 8 -158 35 0 20 -13 19 -57 -5 -30 -16 -57 -20 -136 -20 -100 0 -111 3 -234 62 -29 14 -132 115 -162 158 -13 19 -40 70 -60 115 l-36 80 0 170 c0 176 0 177 51 291 63 142 172 239 329 292 45 15 157 14 217 -2z m-2184 -14 c127 -40 236 -140 304 -279 123 -252 57 -603 -145 -764 -190 -151 -417 -143 -599 21 -62 55 -115 141 -157 249 -22 59 -25 82 -25 206 0 120 3 149 22 206 64 186 207 332 360 368 66 16 176 12 240 -7z m-4528 -337 c5 -335 5 -341 28 -378 30 -47 68 -67 127 -67 57 0 88 20 123 79 l27 46 5 330 5 330 134 3 c90 2 138 -1 147 -9 20 -16 20 -628 0 -709 -43 -174 -119 -292 -235 -364 -86 -53 -204 -75 -281 -52 -29 9 -59 16 -67 16 -10 0 -13 -54 -15 -256 -3 -300 -1 -294 -89 -252 -30 14 -88 39 -129 55 l-75 28 -3 760 c-1 418 0 766 3 773 3 10 39 12 147 10 l143 -3 5 -340z m3288 -460 c1 -440 0 -810 -3 -822 -7 -30 -30 -29 -91 2 -27 14 -53 25 -59 25 -23 0 -130 50 -142 66 -19 25 -19 1504 -1 1522 9 9 52 12 153 10 l140 -3 3 -800z m2062 390 c3 -225 7 -411 8 -412 1 -1 59 -4 130 -5 l127 -3 0 -150 0 -150 -125 -5 -125 -5 -3 -41 c-3 -45 29 -116 77 -167 26 -29 103 -70 154 -82 l27 -7 -2 -157 -3 -156 -70 2 c-55 1 -81 7 -115 27 -25 14 -52 26 -61 26 -9 0 -23 7 -30 17 -8 9 -26 23 -40 32 -39 24 -122 127 -159 197 -67 129 -69 158 -70 842 l0 613 138 -3 137 -3 5 -410z m2228 -169 c1 -347 -2 -584 -7 -589 -12 -12 -103 9 -161 38 -25 12 -60 26 -78 30 -18 3 -37 15 -42 25 -11 20 -14 1037 -4 1064 6 14 25 16 148 14 l141 -3 3 -579z"/>
 <path d="M3017 6529 c3 -41 16 -120 29 -176 13 -57 24 -113 24 -125 0 -26 36 -235 49 -285 6 -22 5 -35 -3 -41 -6 -5 -79 -12 -163 -16 -178 -8 -259 -27 -378 -89 -145 -76 -275 -196 -362 -337 -33 -52 -113 -215 -113 -228 0 -7 -14 -56 -31 -109 -31 -96 -32 -102 -32 -288 0 -172 2 -198 23 -267 l24 -75 82 -6 c182 -11 319 -131 373 -327 50 -178 8 -353 -113 -481 -88 -93 -184 -134 -294 -127 -170 12 -297 116 -366 302 -22 57 -26 85 -26 172 0 108 3 119 63 243 30 63 30 63 14 110 -16 45 -33 130 -58 281 -28 168 -1 442 62 633 10 31 19 64 19 72 0 36 -149 100 -260 112 -123 12 -300 -57 -390 -154 -135 -145 -190 -290 -190 -498 0 -103 0 -102 93 -107 67 -3 95 -9 151 -36 118 -56 212 -175 247 -314 6 -28 10 -91 7 -151 -3 -99 -6 -109 -46 -188 -65 -131 -146 -204 -257 -234 -184 -50 -361 34 -459 217 -67 126 -69 325 -6 459 25 52 26 64 18 106 -5 27 -18 93 -27 148 l-18 100 -40 -80 c-61 -121 -120 -308 -135 -427 -16 -131 -16 -343 -1 -478 19 -159 95 -367 201 -545 69 -117 231 -291 333 -359 129 -86 215 -128 319 -156 41 -11 93 -25 115 -31 22 -6 101 -12 175 -12 118 0 148 3 235 28 164 45 155 40 149 93 -7 64 36 230 76 292 34 52 121 135 171 162 17 9 61 22 98 29 146 26 279 -27 375 -149 60 -75 106 -211 106 -311 0 -80 -37 -210 -77 -275 -38 -59 -113 -127 -180 -161 -52 -27 -67 -30 -153 -30 -81 0 -103 4 -150 26 -31 14 -72 40 -92 58 l-37 32 -68 -27 c-121 -49 -240 -74 -370 -81 -68 -3 -123 -9 -123 -13 0 -9 140 -147 170 -166 14 -9 30 -22 35 -29 10 -12 30 -24 159 -93 65 -35 192 -81 291 -103 35 -8 114 -14 190 -14 181 1 304 30 465 109 126 62 162 87 280 193 60 53 80 75 165 183 53 67 175 287 175 316 0 5 9 28 19 50 21 44 67 233 81 334 14 101 13 130 -7 136 -41 12 -141 69 -172 98 -48 44 -115 153 -129 208 -34 136 -19 317 35 404 72 118 169 195 271 215 139 27 271 -17 364 -120 27 -31 56 -69 63 -86 7 -16 24 -52 37 -80 20 -44 23 -64 22 -175 -1 -122 -2 -127 -37 -204 -20 -44 -53 -98 -73 -120 -78 -84 -76 -81 -85 -189 -21 -248 -36 -328 -96 -507 -62 -184 -196 -434 -279 -521 -13 -14 -24 -29 -24 -34 0 -13 -187 -194 -258 -249 -34 -27 -62 -52 -62 -57 0 -13 143 -32 206 -26 148 14 300 68 420 149 66 44 234 216 234 238 0 5 10 21 23 37 29 35 89 160 112 231 l17 53 -29 22 c-83 63 -151 168 -179 272 -18 66 -18 193 1 264 60 231 284 384 480 326 82 -23 124 -46 173 -94 167 -163 201 -422 81 -627 -45 -77 -121 -147 -189 -174 -47 -18 -48 -19 -64 -76 -8 -27 -18 -60 -22 -73 -7 -24 -6 -24 37 -17 375 58 649 413 649 841 0 197 -67 410 -168 535 l-19 24 -29 -19 c-83 -56 -126 -69 -219 -70 -77 0 -98 4 -148 27 -54 26 -167 120 -167 141 0 5 -11 22 -24 37 -12 15 -31 51 -40 79 -80 245 12 513 209 610 74 37 152 53 209 45 53 -8 172 -63 214 -99 93 -79 155 -228 156 -380 l1 -90 45 -59 c82 -107 79 -103 90 -84 6 9 17 24 26 33 28 27 85 144 117 239 30 88 31 96 31 271 0 177 -1 182 -32 272 -32 92 -78 182 -132 258 -31 44 -144 155 -158 155 -5 0 -21 9 -36 21 -60 47 -231 99 -326 99 -46 0 -170 -23 -189 -35 -7 -4 -11 -45 -11 -104 0 -109 -9 -145 -69 -271 -22 -47 -121 -144 -175 -169 -69 -34 -156 -46 -229 -31 -94 18 -139 42 -205 109 -110 112 -151 231 -138 405 6 78 12 103 46 173 22 45 46 85 53 90 8 4 18 15 23 24 13 24 92 81 143 104 35 15 67 20 142 20 92 0 100 -2 169 -38 l71 -37 92 31 c56 19 122 33 170 36 64 5 77 9 77 23 0 10 -40 58 -89 108 -143 144 -283 223 -462 261 -173 37 -167 37 -363 -3 -203 -42 -418 -196 -561 -405 -74 -107 -174 -359 -175 -437 0 -15 15 -32 49 -53 74 -48 135 -120 177 -207 38 -79 38 -79 38 -209 -1 -119 -3 -136 -28 -195 -37 -89 -72 -137 -138 -190 -152 -123 -347 -117 -491 13 -32 29 -64 62 -70 73 -7 12 -20 36 -31 55 -55 97 -71 261 -37 379 35 123 76 183 184 266 48 38 57 50 58 77 0 18 9 64 20 102 11 39 24 93 30 120 6 28 21 73 33 100 13 28 34 75 47 105 13 30 39 80 57 110 18 30 38 64 45 75 14 23 82 111 135 174 33 39 169 157 234 202 l23 16 -82 89 c-45 49 -140 147 -212 218 l-130 130 6 -75z"/>
 <path d="M4091 5265 c-64 -58 -68 -159 -10 -224 27 -29 37 -33 80 -34 63 -1 98 24 122 88 25 66 10 132 -39 175 -50 44 -101 42 -153 -5z"/>
 <path d="M2933 4833 c-32 -6 -91 -76 -99 -117 -11 -60 4 -106 47 -149 37 -37 42 -39 85 -34 34 3 55 13 77 36 28 27 32 38 35 101 4 61 1 75 -19 105 -32 46 -77 67 -126 58z"/>
 <path d="M1040 4386 c-62 -34 -97 -132 -70 -196 20 -48 75 -90 117 -90 134 0 181 199 64 277 -38 26 -74 29 -111 9z"/>
 <path d="M4695 4331 c-28 -12 -50 -40 -64 -80 -48 -146 75 -264 188 -180 69 51 71 181 2 243 -23 21 -95 30 -126 17z"/>
 <path d="M2115 4171 c-34 -14 -75 -62 -87 -103 -9 -31 -9 -50 1 -86 30 -113 139 -147 210 -66 28 32 31 41 31 104 0 60 -3 72 -27 101 -15 17 -42 38 -60 45 -36 16 -40 16 -68 5z"/>
 <path d="M3681 3922 c-52 -28 -73 -74 -67 -147 4 -54 8 -63 45 -97 65 -61 139 -48 184 32 34 60 34 97 2 160 -20 40 -32 51 -62 59 -52 15 -63 14 -102 -7z"/>
 <path d="M4369 3147 c-61 -41 -85 -126 -56 -195 16 -39 82 -92 115 -92 33 0 85 36 108 74 21 36 24 109 6 153 -16 38 -78 83 -114 83 -14 0 -40 -10 -59 -23z"/>
 <path d="M2410 3011 c-27 -14 -39 -30 -54 -70 -17 -46 -17 -59 -7 -106 16 -71 54 -105 115 -105 77 0 126 59 126 152 0 62 -25 110 -69 133 -39 20 -69 19 -111 -4z"/>
 <path d="M9342 4809 c-56 -28 -101 -83 -123 -150 -23 -71 -23 -93 2 -164 20 -58 63 -115 104 -137 94 -52 219 -4 264 102 47 110 15 267 -67 323 -75 52 -115 58 -180 26z"/>
 <path d="M10444 4811 c-75 -34 -144 -145 -144 -233 0 -43 36 -135 66 -171 55 -66 146 -87 226 -54 72 30 137 162 124 251 -8 53 -47 137 -77 165 -34 33 -94 61 -126 61 -15 0 -46 -9 -69 -19z"/>
 <path d="M14709 4807 c-85 -53 -129 -131 -129 -232 0 -86 67 -200 133 -224 37 -14 123 -14 150 0 72 37 127 136 127 227 0 99 -36 168 -115 220 -60 39 -113 42 -166 9z"/>
 <path d="M12500 4814 c-75 -52 -106 -96 -126 -182 -14 -61 2 -152 38 -210 33 -54 101 -92 165 -92 62 0 96 15 139 62 63 68 69 85 69 188 0 91 -1 97 -33 143 -53 75 -94 101 -166 105 -46 2 -67 -1 -86 -14z"/>
 </g>

</svg>